<?xml version="1.0" encoding="UTF-8" standalone="no"?><!DOCTYPE svg PUBLIC "-//W3C//DTD SVG 1.1//EN" "http://www.w3.org/Graphics/SVG/1.1/DTD/svg11.dtd"><svg width="100%" height="100%" viewBox="0 0 596 596" version="1.1" xmlns="http://www.w3.org/2000/svg" xmlns:xlink="http://www.w3.org/1999/xlink" xml:space="preserve" xmlns:serif="http://www.serif.com/" style="fill-rule:evenodd;clip-rule:evenodd;stroke-linejoin:round;stroke-miterlimit:2;"><g id="Capa-1" serif:id="Capa 1"><path id="rect4514" d="M115.122,9.203l370.596,0c58.007,0 104.705,46.698 104.705,104.705l0,370.596c0,58.006 -46.698,104.705 -104.705,104.705l-370.596,-0c-58.006,-0 -104.705,-46.699 -104.705,-104.705l0,-370.596c0,-58.007 46.699,-104.705 104.705,-104.705Z" style="fill:#989898;fill-opacity:0.87;fill-rule:nonzero;"/><path id="path4753" d="M430.815,356.084l-249.785,-249.786l-147.034,139.61l532.849,246.205l-136.03,-136.029Z" style="fill:none;fill-rule:nonzero;"/><path id="path868" d="M497.145,263.72l-348.122,32.306l-33.127,105.395l187.787,187.787l182.036,0c58.006,0 104.704,-46.697 104.704,-104.704l-0,-127.384l-93.278,-93.4Z" style="fill-opacity:0.18;fill-rule:nonzero;"/><rect id="path913" x="105.792" y="214.651" width="389.257" height="49.125" style="fill-opacity:0.21;fill-rule:nonzero;"/><path id="path11328" d="M105.792,214.802l-0,-32.613c-0,-18.002 14.61,-32.613 32.612,-32.613l326.128,0c18.002,0 32.612,14.611 32.612,32.613l0,32.613l-391.352,-0Zm391.352,48.919l0,114.144c0,18.002 -14.61,32.613 -32.612,32.613l-326.128,-0c-18.002,-0 -32.612,-14.611 -32.612,-32.613l-0,-114.144l391.352,-0Zm-244.595,81.531l-97.838,0l-0,16.307l97.838,-0l0,-16.307Zm48.919,-32.612l-146.757,-0l-0,16.306l146.757,-0l0,-16.306Zm146.757,-0l-48.919,-0l0,16.306l48.919,-0l0,-16.306Z" style="fill:#fff;fill-rule:nonzero;"/></g></svg>